<?xml version="1.0" encoding="UTF-8" standalone="no"?>
<svg
   xmlns:dc="http://purl.org/dc/elements/1.1/"
   xmlns:cc="http://creativecommons.org/ns#"
   xmlns:rdf="http://www.w3.org/1999/02/22-rdf-syntax-ns#"
   xmlns:svg="http://www.w3.org/2000/svg"
   xmlns="http://www.w3.org/2000/svg"
   xmlns:sodipodi="http://sodipodi.sourceforge.net/DTD/sodipodi-0.dtd"
   xmlns:inkscape="http://www.inkscape.org/namespaces/inkscape"
   width="1000"
   height="1000"
   viewBox="0 0 264.58333 264.58333"
   version="1.1"
   id="svg8"
   inkscape:version="1.0.1 (3bc2e813f5, 2020-09-07)"
   sodipodi:docname="icon.svg">
  <defs
     id="defs2" />
  <sodipodi:namedview
     id="base"
     pagecolor="#ffffff"
     bordercolor="#666666"
     borderopacity="1.0"
     inkscape:pageopacity="0.0"
     inkscape:pageshadow="2"
     inkscape:zoom="0.35"
     inkscape:cx="-48.514659"
     inkscape:cy="482.30634"
     inkscape:document-units="px"
     inkscape:current-layer="layer1"
     inkscape:document-rotation="0"
     showgrid="false"
     showborder="false"
     inkscape:window-width="1920"
     inkscape:window-height="1027"
     inkscape:window-x="-8"
     inkscape:window-y="22"
     inkscape:window-maximized="1"
     units="px" />
  <metadata
     id="metadata5">
    <rdf:RDF>
      <cc:Work
         rdf:about="">
        <dc:format>image/svg+xml</dc:format>
        <dc:type
           rdf:resource="http://purl.org/dc/dcmitype/StillImage" />
        <dc:title></dc:title>
      </cc:Work>
    </rdf:RDF>
  </metadata>
  <g
     inkscape:label="Layer 1"
     inkscape:groupmode="layer"
     id="layer1">
    <g
       id="g1067"
       transform="matrix(0.75055924,0,0,0.75055924,-46.982839,2.0537217)"
       inkscape:export-filename="F:\repos\ValheimCraftingSkill\crafting_skill.png"
       inkscape:export-xdpi="97"
       inkscape:export-ydpi="97">
      <path
         style="font-variation-settings:normal;opacity:1;vector-effect:none;fill:#552200;fill-opacity:1;stroke:#241c1c;stroke-width:0.264583;stroke-linecap:butt;stroke-linejoin:miter;stroke-miterlimit:4;stroke-dasharray:none;stroke-dashoffset:0;stroke-opacity:1;stop-color:#000000;stop-opacity:1"
         d="m -186.59417,71.948853 c -1.91258,2.761782 -1.96085,5.523572 -0.66817,8.285351 l 76.43907,12.695301 -0.66817,4.543589 -72.83094,-0.534551 c -2.29367,1.691762 -2.47254,3.475467 -0.66817,5.345397 l 75.35378,0.88762 c 5.2167,1.57857 7.36058,0.36332 9.921404,0.11742 l 28.111825,-1.23903 1.73933,-1.83736 v -2.806317 l -25.323785,-0.267269 0.01,-0.890831 25.213675,-1.34756 0.13363,-2.572469 -22.484052,-2.539061 c -4.176834,-4.663839 -7.270921,-4.357378 -13.029397,-4.27631 z"
         id="path914-0"
         sodipodi:nodetypes="cccccccccccccccccc" />
      <path
         style="font-variation-settings:normal;opacity:1;vector-effect:none;fill:#6c5353;fill-opacity:1;stroke:none;stroke-width:0.264583;stroke-linecap:butt;stroke-linejoin:miter;stroke-miterlimit:4;stroke-dasharray:none;stroke-dashoffset:0;stroke-opacity:1;stop-color:#000000;stop-opacity:1"
         d="m -186.59417,98.908464 c -2.49726,-1.556952 -2.34863,20.760346 0.53454,19.644306 16.04561,0.0624 31.2932,4.38103 46.60813,8.34042 6.74781,0.99827 12.88111,3.06791 18.14285,6.04762 12.47949,6.20525 17.3722,12.55634 25.985865,17.76488 8.288854,6.22112 14.813374,14.08667 18.615334,20.78869 1.95258,6.37059 1.90083,13.4928 1.88987,20.59971 -0.0769,12.57125 -1.67772,17.03126 -2.64582,25.13541 l -0.94494,5.85862 102.24255,-0.18896 c -2.6758,-6.30179 -7.13821,-11.26622 -8.22099,-19.84375 -0.94212,-8.09954 -3.6384,-13.94175 -1.22842,-24.94644 2.26253,-7.29492 12.39735,-11.57256 23.24555,-12.09524 17.37223,-1.12801 34.91744,-3.81256 52.91665,-10.58333 15.740641,-5.77906 34.245051,-12.07831 52.160731,-28.15923 6.37045,-6.16653 10.43294,-12.44846 19.16506,-18.49691 5.39562,-5.09048 0.15706,-8.27215 -4.43743,-7.24837 l -33.81544,2.49974 -55.562511,0.56697 -30.04909,1.5119 -0.37797,-5.10268 -2.83482,-2.456836 -101.10865,0.944939 z"
         id="path944-3"
         sodipodi:nodetypes="cccccccccccccccccccccccc" />
      <path
         id="path1018"
         style="font-variation-settings:normal;opacity:1;vector-effect:none;fill:#ffff00;fill-opacity:1;stroke:#ffff00;stroke-width:0.0385516;stroke-linecap:butt;stroke-linejoin:miter;stroke-miterlimit:4;stroke-dasharray:none;stroke-dashoffset:0;stroke-opacity:1;stop-color:#000000;stop-opacity:1"
         d="m -138.16468,31.38843 -4.20129,9.600459 74.8068,54.813174 z m 70.60551,64.413633 -64.91542,70.141457 9.56996,4.2695 55.34598,-74.410428 0.002,-0.0026 z m 0.002,-0.0026 92.66566,-23.399591 -5.69423,-8.797396 z m 0,0 86.38336,40.894157 1.20302,-10.41022 z" />
      <path
         style="font-variation-settings:normal;opacity:1;vector-effect:none;fill:#ff2a2a;fill-opacity:1;stroke:#ff00ff;stroke-width:0.0308376;stroke-linecap:butt;stroke-linejoin:miter;stroke-miterlimit:4;stroke-dasharray:none;stroke-dashoffset:0;stroke-opacity:1;stop-color:#000000;stop-opacity:1"
         d="m -66.21696,92.652343 -21.891981,3.864605 22.539324,2.937099 23.010122,-4.482939 z"
         id="path1059" />
      <path
         id="path64-4"
         style="font-variation-settings:normal;opacity:1;vector-effect:none;fill:#552200;fill-opacity:1;stroke:#241c1c;stroke-width:0.0264583;stroke-linecap:butt;stroke-linejoin:miter;stroke-miterlimit:4;stroke-dasharray:none;stroke-dashoffset:0;stroke-opacity:1;stop-color:#000000;stop-opacity:1"
         d="m -65.640481,8.2489444 c 7.05664,0.0517 13.24324,0.93567 14.69626,2.5683096 l -0.26716,9.153971 -4.61058,3.67471 c -1.13733,3.4103 -1.57844,6.49815 -0.30076,8.48579 l 3.64165,5.98051 0.0243,1.656228 h 0.80202 l 1.34359,-1.956469 0.87333,1.143079 5.24205,-0.743108 13.69787,0.802021 30.53508972,-1.069182 87.66441028,-3.474209 44.901671,-0.80202 0.53432,27.79624 -17.37259,0.534329 -44.901131,-0.534329 -53.72126,-1.336352 -35.81384,1.603521 -30.73611,3.47472 -1.26969,1.736841 -0.50539,-4.007501 -1.16479,0.132289 -0.40101,4.075721 c -2.30733,5.795561 -0.51775,8.67646 1.73736,11.225671 l 2.40503,2.605518 1.20302,10.690831 c -9.03486,5.171221 -28.69185,4.6134 -38.01938,2.873209 l -0.20049,-6.14743 c 0.45688,-6.965738 2.09864,-6.164268 3.2742,-8.418608 1.81823,-2.21448 1.93031,-7.637261 -0.66816,-11.525911 -0.74621,-1.37668 -1.34724,-2.844441 -1.73736,-4.443659 l -1.20251,-18.976102 c -0.12745,-3.187819 -0.17461,-6.353429 1.60351,-9.020119 4.08078,-6.091859 2.09621,-9.315849 -0.63459,-12.962519 l -2.57248,-1.20303 -1.403526,-9.487791 c 3.738866,-2.8624996 14.250306,-4.1716996 23.323136,-4.1051696 z" />
    </g>
  </g>
</svg>
